<svg id="Layer_1" data-name="Layer 1" xmlns="http://www.w3.org/2000/svg" viewBox="0 0 442.4395 57.8243">
  <path id="type" d="M47.1885,14.1732h6.2326V43.6511H46.43V24.7855L35.7759,38.5141H31.8184L21.1641,24.7855V43.6511H14.1732V14.1732h6.5277l13.2643,17.308ZM63.8517,37.2506H84.738v6.4005H56.44V14.1732h7.412ZM109.071,14.1732v6.4017H96.3539V43.6511H88.943V20.5749H76.2248V14.1732Zm12.41,0h7.4949V43.6511h-7.4949Zm38.2738,0h7.1577V43.6511h-5.9793L139.373,23.438V43.6511h-7.1589V14.1732h6.3166l21.2246,19.9191Zm10.1786,29.4779V14.1732h24.5929c6.57,0,10.106,3.4955,10.106,10.1071v9.2648c0,6.6106-3.5363,10.106-10.106,10.106Zm7.4121-6.1485h15.4961c2.9062,0,4.38-1.4736,4.38-4.3787V24.7015c0-2.9062-1.4736-4.38-4.38-4.38H177.346Zm37.8457,6.1485c-5.5593,0-8.1692-2.5691-8.1692-8.1692V14.1732h7.4109v19.792c0,2.527.8844,3.4534,3.4534,3.4534h12.1279c2.5271,0,3.4534-.9264,3.4534-3.4534V14.1732h7.4109V35.4819c0,5.6-2.611,8.1692-8.1692,8.1692Zm28.0339-9.0956h7.2009v1.1364c0,1.7267.6323,2.359,2.359,2.359h14.949c1.7267,0,2.3579-.6323,2.3579-2.359V34.3863c0-1.7255-.5472-2.19-2.3579-2.3579L249.9633,30.85c-4.4207-.3371-6.3165-2.0638-6.3165-6.3176V20.49c0-4.3787,1.98-6.3166,6.3165-6.3166H270.64c4.3378,0,6.3176,1.9379,6.3176,6.3166v2.275h-7.202v-.6323c0-1.7268-.6312-2.358-2.3579-2.358H253.4587c-1.7267,0-2.3579.6312-2.3579,2.358V22.68c0,1.7268.5472,2.2319,2.3579,2.3591L271.23,26.2171c4.4218.2951,6.3165,1.98,6.3165,6.3165v4.801c0,4.38-1.98,6.3165-6.3165,6.3165H249.5421c-4.3366,0-6.3165-1.9367-6.3165-6.3165Zm68.8518-20.3823v6.4017H299.36V43.6511h-7.4109V20.5749H279.2312V14.1732Zm36.8514,29.4779h-8.4644L332.7583,33.376H322.062V43.6511H314.65V14.1732h25.6873c5.18,0,7.328,2.1059,7.328,7.3281v4.0426c0,5.053-2.1058,7.2009-6.9908,7.3269ZM322.062,19.5634V28.155h15.2861c2.2319,0,2.9051-.7164,2.9051-2.9483V22.5116c0-2.2319-.6732-2.9482-2.9051-2.9482Zm28.5821-5.39h7.4949V43.6511h-7.4949Zm18.1867,23.4985H391.823v5.9794H361.3768V14.1732h30.025v5.9805h-22.571v5.6h20.8863v5.4742H368.8308Zm25.1146-3.1162h7.2009v1.1364c0,1.7267.6323,2.359,2.359,2.359h14.949c1.7267,0,2.3579-.6323,2.3579-2.359V34.3863c0-1.7255-.5472-2.19-2.3579-2.3579L400.6831,30.85c-4.4207-.3371-6.3165-2.0638-6.3165-6.3176V20.49c0-4.3787,1.98-6.3166,6.3165-6.3166h20.6763c4.3378,0,6.3165,1.9379,6.3165,6.3166v2.275H420.475v-.6323c0-1.7268-.6312-2.358-2.3579-2.358H404.1785c-1.7267,0-2.3579.6312-2.3579,2.358V22.68c0,1.7268.5472,2.2319,2.3579,2.3591L421.95,26.2171c4.4218.2951,6.3165,1.98,6.3165,6.3165v4.801c0,4.38-1.98,6.3165-6.3165,6.3165H400.2619c-4.3366,0-6.3165-1.9367-6.3165-6.3165Z" style="fill: #2f2e2d"/>
</svg>
