<svg id="Layer_1" data-name="Layer 1" xmlns="http://www.w3.org/2000/svg" viewBox="0 0 447.029 305.3274">
  <g>
    <path id="type" d="M51.7781,261.6763h6.2325v29.4778H51.02V272.2886L40.3654,286.0171H36.4079L25.7536,272.2886v18.8655H18.7627V261.6763H25.29l13.2643,17.308Zm16.6631,23.0773H89.3275v6.4005H61.0292V261.6763h7.412Zm45.2193-23.0773v6.4016H100.9434v23.0762H93.5325V268.0779H80.8143v-6.4016Zm12.41,0h7.4949v29.4778H126.071Zm38.2738,0h7.1577v29.4778h-5.9793L143.9625,270.941v20.2131h-7.1588V261.6763H143.12l21.2246,19.919Zm10.1786,29.4778V261.6763h24.5929c6.57,0,10.106,3.4954,10.106,10.1071v9.2647c0,6.6106-3.5363,10.106-10.106,10.106Zm7.4121-6.1485h15.4961c2.9063,0,4.38-1.4735,4.38-4.3786v-8.4224c0-2.9063-1.4735-4.38-4.38-4.38H181.9355Zm37.8458,6.1485c-5.5594,0-8.1693-2.569-8.1693-8.1692V261.6763h7.4109v19.7919c0,2.527.8844,3.4534,3.4534,3.4534h12.1279c2.5271,0,3.4534-.9264,3.4534-3.4534V261.6763h7.4109v21.3086c0,5.6-2.611,8.1692-8.1692,8.1692Zm28.0338-9.0956h7.2009v1.1364c0,1.7267.6323,2.359,2.359,2.359h14.949c1.7267,0,2.3579-.6323,2.3579-2.359v-1.3055c0-1.7256-.5472-2.19-2.3579-2.358l-17.7712-1.1783c-4.4207-.3372-6.3165-2.0639-6.3165-6.3177v-4.0426c0-4.3787,1.98-6.3165,6.3165-6.3165h20.6763c4.3378,0,6.3176,1.9378,6.3176,6.3165v2.275h-7.202v-.6323c0-1.7267-.6312-2.3579-2.3579-2.3579H258.0482c-1.7267,0-2.3579.6312-2.3579,2.3579v.5472c0,1.7267.5472,2.2319,2.3579,2.359l17.7712,1.1784c4.4218.2952,6.3165,1.98,6.3165,6.3165v4.801c0,4.38-1.98,6.3165-6.3165,6.3165H254.1316c-4.3366,0-6.3165-1.9367-6.3165-6.3165Zm68.8518-20.3822v6.4016H303.95v23.0762h-7.4109V268.0779H283.8207v-6.4016Zm36.8514,29.4778h-8.4644l-7.7061-10.2751H326.6515v10.2751h-7.4121V261.6763h25.6873c5.18,0,7.3281,2.1058,7.3281,7.328v4.0426c0,5.053-2.1059,7.2009-6.9909,7.3269Zm-26.8668-24.0877v8.5916h15.2861c2.2319,0,2.9051-.7164,2.9051-2.9483v-2.695c0-2.2319-.6732-2.9483-2.9051-2.9483Zm28.5821-5.39h7.495v29.4778h-7.495ZM373.42,285.1748h22.9922v5.9793H365.9663V261.6763h30.0251v5.98H373.42v5.6h20.8863v5.4742H373.42Zm25.1146-3.1163h7.2009v1.1364c0,1.7267.6323,2.359,2.359,2.359h14.949c1.7267,0,2.3579-.6323,2.3579-2.359v-1.3055c0-1.7256-.5472-2.19-2.3579-2.358l-17.7712-1.1783c-4.4206-.3372-6.3165-2.0639-6.3165-6.3177v-4.0426c0-4.3787,1.98-6.3165,6.3165-6.3165h20.6763c4.3378,0,6.3165,1.9378,6.3165,6.3165v2.275h-7.2009v-.6323c0-1.7267-.6312-2.3579-2.3579-2.3579H408.7681c-1.7268,0-2.358.6312-2.358,2.3579v.5472c0,1.7267.5472,2.2319,2.358,2.359l17.7711,1.1784c4.4218.2952,6.3166,1.98,6.3166,6.3165v4.801c0,4.38-1.98,6.3165-6.3166,6.3165H404.8514c-4.3366,0-6.3165-1.9367-6.3165-6.3165Z" style="fill: #2e2e2e"/>
    <g id="logoMark">
      <path id="logoMark_CompoundPathItem_" data-name="logoMark &lt;CompoundPathItem&gt;" d="M153.0645,157.8369h10.163V74.9L116.3552,183.379H95.9483L49.076,74.9V195.8H29.0823V105.44a9.7588,9.7588,0,0,0,0-16.7465V54.825H62.3849l36.088,84.9588a9.8162,9.8162,0,1,0,8.3858-3.6909l.0659-.1341L68.2307,44.662H18.92V88.6939a9.7587,9.7587,0,0,0,0,16.7465V205.9632H59.2391V125.3126l30.8938,68.23h32.0378l30.8938-68.2295Zm-43.899-11.9878a3.0138,3.0138,0,1,1-3.0134-3.0141A3.0139,3.0139,0,0,1,109.1655,145.8491ZM24.001,94.0537a3.0138,3.0138,0,1,1-3.014,3.0134A3.0134,3.0134,0,0,1,24.001,94.0537ZM144.0872,44.662l-30.1253,69.6319,5.3953,11.0187L149.8533,54.825h33.368V195.8H163.2275v-7.25a9.8276,9.8276,0,1,0-10.163,0v17.413h40.32V44.662Zm14.0585,132.5016a3.0137,3.0137,0,1,1-3.0134,3.0134A3.0135,3.0135,0,0,1,158.1457,177.1636Z" style="fill: #4d4d4d"/>
      <path id="logoMark_CompoundPathItem_2" data-name="logoMark &lt;CompoundPathItem&gt;" d="M245.5539,72.3968a9.7587,9.7587,0,0,0,0,16.7464V147.96h10.1625V89.1432a9.7592,9.7592,0,0,0,0-16.747V44.6677H213.7105V54.8308h31.8434Zm5.0813,11.3872a3.0137,3.0137,0,1,1,3.014-3.014A3.0139,3.0139,0,0,1,250.6352,83.784ZM223.873,164.4306V73.12H213.7105V174.5937h96.7953v21.2168H227.1649a9.8276,9.8276,0,1,0,0,10.163h93.5039V164.4306Zm-5.0813,39.4751a3.0137,3.0137,0,1,1,3.0135-3.014A3.0144,3.0144,0,0,1,218.7917,203.9057Z" style="fill: #4d4d4d"/>
      <path id="logoMark_CompoundPathItem_3" data-name="logoMark &lt;CompoundPathItem&gt;" d="M289.5589,44.662V85.8513h82.997V195.4024H351.0446V164.4306H340.8815v41.1343H382.719V75.6888H299.722V54.825H422.6927V75.6888h-9.8634a9.8273,9.8273,0,1,0,.0006,10.1625h20.0258V44.662ZM404.4561,83.784a3.0137,3.0137,0,1,1,3.014-3.014A3.0139,3.0139,0,0,1,404.4561,83.784Zm-48.6656,59.5835a9.789,9.789,0,0,0-4.7459-8.3738V98.74H340.8815v36.2536a9.8137,9.8137,0,1,0,14.909,8.3738Zm-12.8412,0a3.0138,3.0138,0,1,1,3.014,3.014A3.0136,3.0136,0,0,1,342.9493,143.3675Z" style="fill: #4d4d4d"/>
      <rect id="logoMark_PathItem_" data-name="logoMark &lt;PathItem&gt;" x="18.9194" y="14.1732" width="413.9363" height="10.1629" style="fill: #4d4d4d"/>
      <rect id="logoMark_PathItem_2" data-name="logoMark &lt;PathItem&gt;" x="18.9194" y="225.9635" width="413.9363" height="10.1629" style="fill: #4d4d4d"/>
    </g>
  </g>
</svg>
