<svg id="Layer_1" data-name="Layer 1" xmlns="http://www.w3.org/2000/svg" viewBox="0 0 447.029 250.2997">
  <g id="logoMark">
    <path id="logoMark_CompoundPathItem_" data-name="logoMark &lt;CompoundPathItem&gt;" d="M153.0645,157.8369h10.163V74.9L116.3552,183.379H95.9483L49.076,74.9V195.8H29.0823V105.44a9.7588,9.7588,0,0,0,0-16.7465V54.825H62.3849l36.088,84.9588a9.8162,9.8162,0,1,0,8.3858-3.6909l.0659-.1341L68.2307,44.662H18.92V88.6939a9.7587,9.7587,0,0,0,0,16.7465V205.9632H59.2391V125.3126l30.8938,68.23h32.0378l30.8938-68.2295Zm-43.899-11.9878a3.0138,3.0138,0,1,1-3.0134-3.0141A3.0139,3.0139,0,0,1,109.1655,145.8491ZM24.001,94.0537a3.0138,3.0138,0,1,1-3.014,3.0134A3.0134,3.0134,0,0,1,24.001,94.0537ZM144.0872,44.662l-30.1253,69.6319,5.3953,11.0187L149.8533,54.825h33.368V195.8H163.2275v-7.25a9.8276,9.8276,0,1,0-10.163,0v17.413h40.32V44.662Zm14.0585,132.5016a3.0137,3.0137,0,1,1-3.0134,3.0134A3.0135,3.0135,0,0,1,158.1457,177.1636Z" style="fill: #4d4d4d"/>
    <path id="logoMark_CompoundPathItem_2" data-name="logoMark &lt;CompoundPathItem&gt;" d="M245.5539,72.3968a9.7587,9.7587,0,0,0,0,16.7464V147.96h10.1625V89.1432a9.7592,9.7592,0,0,0,0-16.747V44.6677H213.7105V54.8308h31.8434Zm5.0813,11.3872a3.0137,3.0137,0,1,1,3.014-3.014A3.0139,3.0139,0,0,1,250.6352,83.784ZM223.873,164.4306V73.12H213.7105V174.5937h96.7953v21.2168H227.1649a9.8276,9.8276,0,1,0,0,10.163h93.5039V164.4306Zm-5.0813,39.4751a3.0137,3.0137,0,1,1,3.0135-3.014A3.0144,3.0144,0,0,1,218.7917,203.9057Z" style="fill: #4d4d4d"/>
    <path id="logoMark_CompoundPathItem_3" data-name="logoMark &lt;CompoundPathItem&gt;" d="M289.5589,44.662V85.8513h82.997V195.4024H351.0446V164.4306H340.8815v41.1343H382.719V75.6888H299.722V54.825H422.6927V75.6888h-9.8634a9.8273,9.8273,0,1,0,.0006,10.1625h20.0258V44.662ZM404.4561,83.784a3.0137,3.0137,0,1,1,3.014-3.014A3.0139,3.0139,0,0,1,404.4561,83.784Zm-48.6656,59.5835a9.789,9.789,0,0,0-4.7459-8.3738V98.74H340.8815v36.2536a9.8137,9.8137,0,1,0,14.909,8.3738Zm-12.8412,0a3.0138,3.0138,0,1,1,3.014,3.014A3.0136,3.0136,0,0,1,342.9493,143.3675Z" style="fill: #4d4d4d"/>
    <rect id="logoMark_PathItem_" data-name="logoMark &lt;PathItem&gt;" x="18.9194" y="14.1732" width="413.9363" height="10.1629" style="fill: #4d4d4d"/>
    <rect id="logoMark_PathItem_2" data-name="logoMark &lt;PathItem&gt;" x="18.9194" y="225.9635" width="413.9363" height="10.1629" style="fill: #4d4d4d"/>
  </g>
</svg>
